<svg width="47" height="47" viewBox="0 0 47 47" fill="none" xmlns="http://www.w3.org/2000/svg">
<g id="Menu">
<path id="Vector" d="M23.3497 14.2734C24.1108 14.2734 24.8547 14.0477 25.4875 13.6249C26.1203 13.202 26.6135 12.6011 26.9048 11.898C27.196 11.1948 27.2722 10.4211 27.1237 9.67469C26.9753 8.92826 26.6088 8.24261 26.0706 7.70446C25.5325 7.16631 24.8468 6.79983 24.1004 6.65136C23.354 6.50288 22.5803 6.57908 21.8771 6.87033C21.174 7.16157 20.573 7.65478 20.1502 8.28757C19.7274 8.92037 19.5017 9.66434 19.5017 10.4254C19.5017 11.4459 19.9071 12.4247 20.6288 13.1463C21.3504 13.868 22.3291 14.2734 23.3497 14.2734ZM23.3497 33.5133C22.5886 33.5133 21.8447 33.7389 21.2119 34.1618C20.5791 34.5846 20.0859 35.1856 19.7946 35.8887C19.5034 36.5918 19.4272 37.3655 19.5756 38.1119C19.7241 38.8584 20.0906 39.544 20.6288 40.0822C21.1669 40.6203 21.8526 40.9868 22.599 41.1353C23.3454 41.2838 24.1191 41.2076 24.8222 40.9163C25.5254 40.6251 26.1263 40.1319 26.5492 39.4991C26.972 38.8663 27.1977 38.1223 27.1977 37.3612C27.1977 36.3407 26.7923 35.3619 26.0706 34.6403C25.349 33.9187 24.3702 33.5133 23.3497 33.5133ZM23.3497 20.0453C22.5886 20.0453 21.8447 20.271 21.2119 20.6938C20.5791 21.1167 20.0859 21.7176 19.7946 22.4208C19.5034 23.1239 19.4272 23.8976 19.5756 24.644C19.7241 25.3905 20.0906 26.0761 20.6288 26.6142C21.1669 27.1524 21.8526 27.5189 22.599 27.6674C23.3454 27.8158 24.1191 27.7396 24.8222 27.4484C25.5254 27.1571 26.1263 26.6639 26.5492 26.0311C26.972 25.3983 27.1977 24.6544 27.1977 23.8933C27.1977 22.8728 26.7923 21.894 26.0706 21.1724C25.349 20.4508 24.3702 20.0453 23.3497 20.0453Z" fill="white"/>
</g>
</svg>
