<svg width="127" height="63" viewBox="0 0 127 63" fill="none" xmlns="http://www.w3.org/2000/svg">
<g id="Ed_logo_rectangle 1 (Traced)">
<path fill-rule="evenodd" clip-rule="evenodd" d="M69.6672 2.72788C70.7075 4.757 70.4456 37.6858 69.3802 38.7977C69.0088 39.1844 59.5223 39.6912 48.299 39.9239L27.8917 40.347V42.4624V44.5778L48.299 45.0009C59.5223 45.2336 69.0088 45.7413 69.3802 46.1289C69.7507 46.5173 70.0539 49.863 70.0539 53.5642C70.0539 58.6251 69.7523 60.4926 68.8377 61.096C68.1348 61.5597 56.1072 61.9041 40.319 61.9117L13.0157 61.9244L10.6563 59.8521C7.14465 56.7678 3.25518 48.4474 1.84842 41.0079C-0.716985 27.4404 2.69572 11.3343 9.92087 2.90389L11.553 1H40.1666C68.1493 1 68.8004 1.03808 69.6672 2.72788ZM102.486 15.2453C122.626 27.3963 126 29.7132 126 31.3937C126 33.0758 122.595 35.4011 102.091 47.7197C84.1483 58.4999 77.8759 61.8837 76.9556 61.2779C75.908 60.5883 75.6988 56.3006 75.5156 31.799C75.398 16.0289 75.4783 2.64834 75.6931 2.06364C75.908 1.47809 76.7342 1.01269 77.5288 1.02877C78.3226 1.04484 89.554 7.44192 102.486 15.2453ZM27.7798 19.1927C27.5228 19.8908 27.5228 21.0331 27.7798 21.7312C28.4731 23.6182 53.0318 23.6182 53.7258 21.7312C53.982 21.0331 53.982 19.8908 53.7258 19.1927C53.0318 17.3057 28.4731 17.3057 27.7798 19.1927ZM91.5405 31.4622C91.5405 34.3502 93.0762 34.8156 95.2208 32.5774C96.4994 31.243 96.4929 31.0831 95.1243 30.0389C92.7413 28.2205 91.5405 28.6977 91.5405 31.4622Z" fill="white"/>
<path d="M69.8569 2.63064L69.8568 2.6306C69.7471 2.41665 69.6306 2.2077 69.4526 2.02128C69.2721 1.83218 69.0383 1.67622 68.7044 1.54636C68.0493 1.29155 66.9809 1.12776 65.0979 1.01747C61.3209 0.796257 54.1536 0.786842 40.1666 0.786842H11.553H11.455L11.3912 0.861266L9.75904 2.76515L9.75902 2.76518C6.11628 7.01557 3.44512 13.1863 2.00466 19.9853C0.563745 26.7864 0.350541 34.2334 1.63898 41.0475C2.34598 44.7864 3.67597 48.7433 5.26992 52.1534C6.86129 55.558 8.72664 58.441 10.5156 60.0122L12.8751 62.0845L12.9355 62.1376L13.0158 62.1375L40.3191 62.1248C48.2144 62.121 55.1705 62.033 60.2414 61.8879C62.7766 61.8154 64.8424 61.7285 66.3194 61.6307C67.0575 61.5818 67.6515 61.5299 68.0847 61.4753C68.3009 61.4481 68.4807 61.4197 68.6197 61.3899C68.7476 61.3625 68.8734 61.3278 68.9551 61.2739C69.4926 60.9193 69.808 60.2197 69.9992 59.0357C70.192 57.8422 70.2671 56.0949 70.2671 53.5642C70.2671 51.7085 70.1911 49.9403 70.0683 48.585C70.0069 47.9079 69.9335 47.3301 69.8512 46.8944C69.8101 46.677 69.7659 46.4904 69.7184 46.3427C69.674 46.2049 69.617 46.0684 69.5344 45.9817L69.5341 45.9814C69.4915 45.937 69.4378 45.9111 69.4019 45.8959C69.3604 45.8784 69.3125 45.863 69.2612 45.8492C69.1583 45.8213 69.0236 45.7945 68.8622 45.7683C68.5384 45.7157 68.088 45.6627 67.5279 45.6097C66.4067 45.5035 64.832 45.3963 62.9205 45.294C59.0966 45.0894 53.9168 44.9042 48.3035 44.7878L28.1049 44.3691V42.4624V40.5558L48.3035 40.137C53.9167 40.0206 59.0966 39.8357 62.9204 39.6314C64.832 39.5293 66.4067 39.4222 67.5279 39.3163C68.088 39.2633 68.5383 39.2104 68.8621 39.1579C69.0235 39.1318 69.1582 39.1051 69.2611 39.0773C69.3124 39.0634 69.3603 39.0481 69.4017 39.0307C69.4377 39.0155 69.4913 38.9897 69.5339 38.9453L69.5341 38.9451C69.6026 38.8736 69.647 38.7679 69.6799 38.6696C69.7156 38.5627 69.7485 38.4289 69.7795 38.2732C69.8415 37.9612 69.8992 37.5421 69.953 37.0342C70.0608 36.0174 70.1545 34.6273 70.2337 32.9883C70.392 29.7093 70.4921 25.4225 70.5265 21.1084C70.5608 16.7943 70.5293 12.4503 70.4241 9.05686C70.3715 7.36048 70.3004 5.89927 70.2097 4.79724C70.1643 4.24649 70.1138 3.78247 70.0577 3.42233C70.0032 3.07236 69.9397 2.79211 69.8569 2.63064ZM77.5331 0.815653L77.5288 1.02877C76.7342 1.01269 75.908 1.47809 75.6931 2.06364L75.4931 1.99012C75.4931 1.99015 75.493 1.99018 75.493 1.99021C75.4782 2.03053 75.4692 2.08002 75.4626 2.12397C75.4553 2.1725 75.4486 2.23206 75.4422 2.3011C75.4294 2.43944 75.4174 2.62427 75.4061 2.85179C75.3834 3.30729 75.3631 3.94177 75.3451 4.73396C75.3092 6.31876 75.2827 8.54032 75.2665 11.2355C75.2343 16.6262 75.2436 23.9148 75.3024 31.8005C75.394 44.0499 75.4921 51.2522 75.6986 55.4783C75.8017 57.5898 75.9322 58.969 76.1051 59.8667C76.2748 60.7483 76.4955 61.2302 76.8384 61.4559C77.0291 61.5815 77.3037 61.5774 77.6034 61.5209C77.9181 61.4615 78.3235 61.331 78.8274 61.1288C79.8369 60.7236 81.2766 60.0158 83.2411 58.9562C87.1719 56.8358 93.2296 53.2923 102.201 47.9024C112.451 41.7442 118.434 38.0798 121.855 35.7441C123.564 34.5773 124.644 33.7343 125.299 33.0718C125.954 32.4099 126.213 31.8977 126.213 31.3937C126.213 30.8908 125.956 30.3796 125.31 29.721C124.664 29.062 123.598 28.2254 121.916 27.0702C118.549 24.7577 112.665 21.1372 102.597 15.0628C96.1292 11.1604 90.0867 7.60938 85.5611 5.03158C83.2986 3.74281 81.4139 2.69658 80.0445 1.97117C79.3601 1.60863 78.8022 1.32509 78.3893 1.13124C78.1831 1.03444 78.0102 0.958673 77.8744 0.906404C77.8065 0.8803 77.7453 0.859016 77.692 0.843834C77.6423 0.829657 77.586 0.816724 77.5331 0.815653ZM27.9798 19.2663L27.9799 19.2662C27.9918 19.2339 28.0563 19.1543 28.269 19.0537C28.4679 18.9596 28.7514 18.8678 29.1149 18.7808C29.84 18.6073 30.8477 18.461 32.0495 18.3434C34.451 18.1085 37.6001 17.9906 40.7525 17.9906C43.9049 17.9906 47.0541 18.1085 49.4557 18.3434C50.6576 18.461 51.6653 18.6073 52.3905 18.7808C52.754 18.8678 53.0376 18.9596 53.2365 19.0537C53.4489 19.1541 53.5137 19.2337 53.5257 19.2661C53.6426 19.5845 53.7048 20.0179 53.7048 20.462C53.7048 20.906 53.6426 21.3394 53.5257 21.6578C53.5137 21.6902 53.4489 21.7698 53.2365 21.8702C53.0376 21.9643 52.754 22.0561 52.3905 22.1431C51.6653 22.3166 50.6576 22.4629 49.4557 22.5805C47.0541 22.8154 43.9049 22.9333 40.7525 22.9333C37.6001 22.9333 34.451 22.8154 32.0495 22.5805C30.8477 22.4629 29.84 22.3166 29.1149 22.1431C28.7514 22.0561 28.4679 21.9643 28.269 21.8702C28.0563 21.7696 27.9918 21.69 27.9799 21.6577L27.9798 21.6576C27.8627 21.3393 27.8002 20.9059 27.8002 20.462C27.8002 20.018 27.8627 19.5846 27.9798 19.2663ZM94.995 30.2084L95.1243 30.0389L94.995 30.2084C95.3389 30.4708 95.5823 30.6667 95.7418 30.835C95.9009 31.0029 95.9487 31.115 95.9522 31.2075C95.9559 31.3041 95.9137 31.4333 95.7647 31.6401C95.6169 31.8451 95.3879 32.095 95.0669 32.43C94.5404 32.9794 94.0613 33.3521 93.6445 33.5634C93.2267 33.7753 92.8926 33.8152 92.6382 33.7381C92.3893 33.6627 92.1705 33.461 92.0099 33.0857C91.848 32.7073 91.7536 32.1686 91.7536 31.4622C91.7536 30.7831 91.8279 30.2633 91.9653 29.8918C92.1016 29.5231 92.292 29.3196 92.5174 29.2301C92.7481 29.1385 93.0626 29.147 93.4842 29.305C93.9045 29.4626 94.4076 29.7602 94.995 30.2084Z" stroke="black" stroke-opacity="0.18" stroke-width="0.426316"/>
</g>
</svg>
